<svg width="73" height="72" viewBox="0 0 73 72" fill="none" xmlns="http://www.w3.org/2000/svg">
<path d="M68.4219 32.0625H65.4688C58.2969 32.0625 54.6406 23.4844 59.7031 18.4219L61.9531 16.3125C62.5156 15.6094 62.9375 14.625 62.9375 13.5C62.9375 11.3906 61.1094 9.5625 59 9.5625C57.875 9.5625 56.8906 9.98438 56.1875 10.5469L54.0781 12.7969C49.0156 17.8594 40.4375 14.2031 40.4375 7.03125V4.07812C40.4375 1.82812 38.6094 0 36.5 0C34.25 0 32.4219 1.82812 32.4219 4.07812V7.03125C32.4219 14.2031 23.8438 17.8594 18.7812 12.7969L16.6719 10.5469C15.9688 9.98438 14.9844 9.5625 13.8594 9.5625C11.75 9.5625 9.92188 11.3906 9.92188 13.5C9.92188 14.625 10.3438 15.6094 11.0469 16.3125L13.1562 18.4219C18.2188 23.4844 14.5625 32.0625 7.53125 32.0625H4.4375C4.4375 32.0625 4.4375 32.0625 4.29688 32.0625C2.1875 32.0625 0.359375 33.8906 0.359375 36C0.359375 38.25 2.1875 40.0781 4.29688 40.0781C4.4375 40.0781 4.4375 40.0781 4.4375 40.0781H7.53125C14.5625 40.0781 18.2188 48.6562 13.1562 53.7188L11.0469 55.8281C10.3438 56.5312 9.92188 57.5156 9.92188 58.6406C9.92188 60.75 11.75 62.5781 13.8594 62.5781C14.9844 62.5781 15.9688 62.1562 16.6719 61.4531L18.7812 59.3438C23.8438 54.2812 32.4219 57.9375 32.4219 64.9688V68.0625C32.4219 70.3125 34.25 72 36.5 72C38.6094 72 40.4375 70.3125 40.4375 68.0625V64.9688C40.4375 57.9375 49.0156 54.2812 54.0781 59.3438L56.1875 61.4531C56.8906 62.1562 57.875 62.5781 59 62.5781C61.1094 62.5781 62.9375 60.75 62.9375 58.6406C62.9375 57.5156 62.5156 56.5312 61.9531 55.8281L59.7031 53.7188C54.6406 48.6562 58.2969 40.0781 65.3281 40.0781H68.4219C68.4219 40.0781 68.4219 40.0781 68.5625 40.0781C70.6719 40.0781 72.5 38.25 72.5 36C72.5 33.8906 70.6719 32.0625 68.5625 32.0625C68.4219 32.0625 68.4219 32.0625 68.4219 32.0625ZM32 38.25C28.2031 38.25 25.25 35.2969 25.25 31.5C25.25 27.8438 28.2031 24.75 32 24.75C35.6562 24.75 38.75 27.8438 38.75 31.5C38.75 35.2969 35.6562 38.25 32 38.25ZM43.25 46.125C41.2812 46.125 39.875 44.7188 39.875 42.75C39.875 40.9219 41.2812 39.375 43.25 39.375C45.0781 39.375 46.625 40.9219 46.625 42.75C46.625 44.7188 45.0781 46.125 43.25 46.125Z" fill="white"/>
</svg>
