<svg width="128" height="128" viewBox="0 0 128 128" fill="none" xmlns="http://www.w3.org/2000/svg">
<rect width="128" height="128" rx="16" fill="#554545"/>
<path d="M96.4219 61.0625H93.4688C86.2969 61.0625 82.6406 52.4844 87.7031 47.4219L89.9531 45.3125C90.5156 44.6094 90.9375 43.625 90.9375 42.5C90.9375 40.3906 89.1094 38.5625 87 38.5625C85.875 38.5625 84.8906 38.9844 84.1875 39.5469L82.0781 41.7969C77.0156 46.8594 68.4375 43.2031 68.4375 36.0312V33.0781C68.4375 30.8281 66.6094 29 64.5 29C62.25 29 60.4219 30.8281 60.4219 33.0781V36.0312C60.4219 43.2031 51.8438 46.8594 46.7812 41.7969L44.6719 39.5469C43.9688 38.9844 42.9844 38.5625 41.8594 38.5625C39.75 38.5625 37.9219 40.3906 37.9219 42.5C37.9219 43.625 38.3438 44.6094 39.0469 45.3125L41.1562 47.4219C46.2188 52.4844 42.5625 61.0625 35.5312 61.0625H32.4375C32.4375 61.0625 32.4375 61.0625 32.2969 61.0625C30.1875 61.0625 28.3594 62.8906 28.3594 65C28.3594 67.25 30.1875 69.0781 32.2969 69.0781C32.4375 69.0781 32.4375 69.0781 32.4375 69.0781H35.5312C42.5625 69.0781 46.2188 77.6562 41.1562 82.7188L39.0469 84.8281C38.3438 85.5312 37.9219 86.5156 37.9219 87.6406C37.9219 89.75 39.75 91.5781 41.8594 91.5781C42.9844 91.5781 43.9688 91.1562 44.6719 90.4531L46.7812 88.3438C51.8438 83.2812 60.4219 86.9375 60.4219 93.9688V97.0625C60.4219 99.3125 62.25 101 64.5 101C66.6094 101 68.4375 99.3125 68.4375 97.0625V93.9688C68.4375 86.9375 77.0156 83.2812 82.0781 88.3438L84.1875 90.4531C84.8906 91.1562 85.875 91.5781 87 91.5781C89.1094 91.5781 90.9375 89.75 90.9375 87.6406C90.9375 86.5156 90.5156 85.5312 89.9531 84.8281L87.7031 82.7188C82.6406 77.6562 86.2969 69.0781 93.3281 69.0781H96.4219C96.4219 69.0781 96.4219 69.0781 96.5625 69.0781C98.6719 69.0781 100.5 67.25 100.5 65C100.5 62.8906 98.6719 61.0625 96.5625 61.0625C96.4219 61.0625 96.4219 61.0625 96.4219 61.0625ZM60 67.25C56.2031 67.25 53.25 64.2969 53.25 60.5C53.25 56.8438 56.2031 53.75 60 53.75C63.6562 53.75 66.75 56.8438 66.75 60.5C66.75 64.2969 63.6562 67.25 60 67.25ZM71.25 75.125C69.2812 75.125 67.875 73.7188 67.875 71.75C67.875 69.9219 69.2812 68.375 71.25 68.375C73.0781 68.375 74.625 69.9219 74.625 71.75C74.625 73.7188 73.0781 75.125 71.25 75.125Z" fill="white"/>
</svg>
